<svg width="98" height="39" viewBox="0 0 98 39" fill="none" xmlns="http://www.w3.org/2000/svg">
<path d="M3.12224 29.4762V38.5367H0.393799V18.511H13.7271L14.0875 20.4157C14.036 20.4157 14.036 20.4157 13.9845 20.3643C13.8816 20.3643 13.8301 20.3643 13.8301 20.3128C13.6242 20.0039 12.852 19.695 11.565 19.3861C10.2265 19.0773 8.47617 18.9228 6.26253 18.9228H3.12224V28.9614H11.8224V29.4248H3.12224V29.4762Z" fill="black"/>
<path d="M23.251 32.8741C23.251 32.3593 23.251 31.8445 23.251 31.3297C23.251 30.7634 23.1995 30.2486 23.1995 29.6823C22.9936 30.1456 22.6332 30.4545 22.1184 30.7634C21.6036 31.0208 21.0373 31.2782 20.4196 31.4841C19.8018 31.69 19.1326 31.8959 18.4633 32.0504C17.7941 32.2563 17.1248 32.4622 16.5586 32.7711C15.9923 33.08 15.529 33.4403 15.1686 33.9037C14.8082 34.367 14.6023 34.9848 14.6023 35.7055C14.6023 36.5292 14.8082 37.0954 15.2201 37.5073C15.6319 37.9191 16.1982 38.125 16.9189 38.125C17.6396 38.125 18.5663 37.9191 19.5444 37.4558C20.574 36.9925 21.7066 36.3232 22.9421 35.4481C22.6332 35.757 22.2214 36.1173 21.7066 36.5292C21.1918 36.941 20.574 37.3014 19.9048 37.6617C19.2355 38.0221 18.5663 38.331 17.897 38.5369C17.1763 38.7943 16.5586 38.8972 15.9923 38.8972C15.529 38.8972 15.0142 38.8458 14.5508 38.7428C14.0875 38.6398 13.6242 38.4854 13.2123 38.228C12.8005 37.9706 12.4916 37.6617 12.2342 37.2499C11.9768 36.838 11.8224 36.2717 11.8224 35.6025C11.8224 35.0362 11.9768 34.5214 12.2857 34.1096C12.5946 33.6977 13.0064 33.3374 13.5212 33.0285C14.036 32.7196 14.6538 32.4622 15.323 32.2563C15.9923 32.0504 16.6615 31.8445 17.3822 31.69C18.103 31.4841 18.7722 31.3297 19.4414 31.1752C20.1107 31.0208 20.7284 30.8149 21.2432 30.6089C21.8095 30.403 22.2214 30.1456 22.5817 29.8882C22.8906 29.5793 23.0965 29.2705 23.148 28.8586C23.045 28.2409 22.9421 27.6746 22.7362 27.1083C22.5817 26.542 22.3243 26.0787 22.0154 25.6669C21.7066 25.255 21.2947 24.9461 20.8314 24.6887C20.3681 24.4313 19.7503 24.3799 19.0811 24.3799C18.0515 24.4313 17.2793 24.5343 16.7645 24.7402C16.2497 24.9461 15.8893 25.2035 15.6319 25.5124C15.3745 25.8213 15.323 26.1302 15.323 26.4905C15.323 26.8509 15.323 27.1598 15.323 27.4687C15.323 27.829 15.2201 28.0864 15.0142 28.2923C14.8082 28.4983 14.5508 28.5497 14.2419 28.5497C13.9331 28.5497 13.6242 28.4468 13.3153 28.1894C13.0064 27.932 12.9035 27.6231 12.9035 27.2113C12.9035 26.645 13.1609 26.1302 13.6242 25.7183C14.0875 25.3065 14.7053 24.9461 15.3745 24.6887C16.0438 24.4313 16.7645 24.2254 17.4852 24.1225C18.2059 24.0195 18.7722 23.968 19.2355 23.968C20.677 23.968 21.861 24.1739 22.7362 24.5858C23.6113 24.9976 24.2806 25.5639 24.7439 26.2331C25.2072 26.9024 25.5161 27.7261 25.6705 28.6527C25.825 29.5793 25.8764 30.506 25.8764 31.5356V38.5884H23.3024V32.8741H23.251Z" fill="black"/>
<path d="M31.5393 37.5072C31.7967 37.8676 32.2085 38.125 32.7748 38.2794C33.3411 38.4339 33.9073 38.5368 34.5766 38.5368C35.1943 38.5368 35.8636 38.4854 36.4813 38.3309C37.1506 38.1765 37.7169 37.9706 38.2317 37.7132C38.7465 37.4558 39.2098 37.1469 39.5187 36.735C39.879 36.3747 40.0335 35.9114 40.0335 35.3966C40.0335 34.7788 39.7761 34.264 39.2098 33.9036C38.6435 33.5433 37.9228 33.2344 37.0991 32.977C36.2754 32.7196 35.3488 32.4622 34.3707 32.2563C33.3925 32.0504 32.4659 31.7415 31.6422 31.4326C30.8185 31.0722 30.0978 30.6604 29.5315 30.0941C28.9653 29.5278 28.7079 28.8071 28.7079 27.9319C28.7079 27.1083 28.9138 26.439 29.3256 25.9242C29.7375 25.4094 30.3037 24.9976 30.9215 24.6887C31.5907 24.3798 32.26 24.1739 33.0322 24.0709C33.8044 23.968 34.4736 23.9165 35.1429 23.9165C35.4517 23.9165 35.8636 23.968 36.3784 24.0195C36.8932 24.0709 37.408 24.2254 37.8713 24.4313C38.3346 24.6372 38.7979 24.8431 39.1583 25.152C39.5187 25.4609 39.7246 25.8727 39.7246 26.3361C39.7246 26.6449 39.6216 26.9023 39.3642 27.1083C39.1068 27.3142 38.8494 27.4171 38.5405 27.4171C38.1287 27.4171 37.8713 27.3142 37.6654 27.1597C37.4595 27.0053 37.3565 26.7994 37.2535 26.542C37.1506 26.3361 37.0991 26.0787 37.0476 25.8213C36.9961 25.5639 36.9447 25.3579 36.7902 25.2035C36.5328 24.8946 36.2239 24.6372 35.9151 24.5343C35.5547 24.4313 35.1429 24.3283 34.6795 24.3283C34.1647 24.3283 33.6499 24.3798 33.1351 24.4828C32.5689 24.5857 32.1055 24.7402 31.6422 24.9461C31.1789 25.152 30.8185 25.4609 30.5611 25.7698C30.2523 26.1301 30.1493 26.542 30.1493 27.0053C30.1493 27.4686 30.3037 27.8805 30.6641 28.1893C30.973 28.4982 31.4363 28.7556 31.9511 29.013C32.4659 29.2189 33.0837 29.4249 33.8044 29.5793C34.4736 29.7337 35.1943 29.8882 35.9151 30.0941C36.6358 30.3 37.3565 30.5059 38.0257 30.7119C38.695 30.9178 39.3127 31.2267 39.879 31.5356C40.3938 31.8444 40.8571 32.2563 41.166 32.7196C41.4749 33.1829 41.6808 33.8007 41.6808 34.4699C41.6808 35.2421 41.4749 35.9114 41.0631 36.4776C40.6512 37.0439 40.1364 37.4558 39.4672 37.8161C38.7979 38.1765 38.0772 38.4339 37.2535 38.5883C36.4299 38.7428 35.5547 38.8457 34.6795 38.8457C34.3707 38.8457 34.0618 38.8457 33.6499 38.7942C33.2381 38.7428 32.8263 38.7428 32.3629 38.6398C31.8996 38.5883 31.4878 38.4854 31.0245 38.3309C30.5611 38.228 30.2008 38.0735 29.8404 37.8676C29.4801 37.6617 29.2227 37.4558 28.9653 37.1984C28.7593 36.941 28.6564 36.6321 28.6564 36.2202C28.6564 35.9114 28.7593 35.7054 29.0167 35.4995C29.2741 35.2936 29.5315 35.1906 29.8404 35.1906C30.2523 35.1906 30.5097 35.2936 30.7156 35.448C30.9215 35.6025 31.0245 35.8084 31.1274 36.0658C31.1789 36.3232 31.2819 36.5291 31.2819 36.7865C31.3333 37.1469 31.4363 37.3528 31.5393 37.5072Z" fill="black"/>
<path d="M43.637 18.5111L46.211 17.1211V38.5883H43.637V18.5111ZM46.5199 25.6668C46.7258 25.3579 47.0347 25.1005 47.3436 24.8946C47.6525 24.6887 48.0128 24.4827 48.4247 24.3798C48.8365 24.2768 49.1969 24.1224 49.6087 24.0709C50.0206 24.0194 50.3809 23.9679 50.7928 23.9679C51.9768 23.9679 52.9549 24.1224 53.7271 24.3798C54.4993 24.6372 55.1686 25.049 55.6319 25.5123C56.1467 25.9757 56.507 26.5419 56.7644 27.1597C57.0218 27.7775 57.2278 28.4467 57.3307 29.1159C57.4337 29.8367 57.4852 30.5059 57.5366 31.2781C57.5366 31.9988 57.5366 32.7196 57.5366 33.3888V38.5883H54.9626V33.1314C54.9626 32.6166 54.9626 32.1018 54.9626 31.484C54.9626 30.8663 54.9112 30.2485 54.8597 29.5793C54.8082 28.91 54.6538 28.2923 54.4993 27.6745C54.3449 27.0567 54.0875 26.5419 53.7786 26.0271C53.4697 25.5638 53.0064 25.152 52.4916 24.8946C51.9768 24.5857 51.3076 24.4313 50.4839 24.4313C49.8146 24.4313 49.2998 24.4827 48.8365 24.5857C48.3732 24.6887 48.0128 24.7916 47.7039 24.8946C47.3951 24.9975 47.1377 25.152 46.9832 25.3064C46.7773 25.4609 46.6229 25.5638 46.5199 25.6668Z" fill="black"/>
<path d="M63.3705 23.5046V38.5367H60.7965V24.8946L63.3705 23.5046Z" fill="black"/>
<path d="M60.0909 19.0765C59.6852 19.2899 58.6827 19.3847 58.6827 19.3847V19.7639C58.6827 19.7639 59.6852 19.8587 60.0909 20.0721C60.4728 20.2854 60.807 20.5698 61.0456 20.9491C61.3082 21.3283 61.4753 21.755 61.5946 22.2527C61.7139 22.7505 61.7617 23.1795 61.7617 23.1795H62.0958C62.0958 23.1795 62.2136 22.499 62.2629 22.2527C62.3822 21.755 62.5732 21.3283 62.8118 20.9491C63.0505 20.5698 63.3608 20.2854 63.7665 20.0721C64.1723 19.8587 65.1747 19.7639 65.1747 19.7639V19.3847C65.1747 19.3847 64.1723 19.2899 63.7665 19.0765C63.3847 18.8632 63.0505 18.5788 62.8118 18.1995C62.5493 17.8203 62.3822 17.3936 62.2629 16.8959C62.2081 16.6025 62.0958 15.855 62.0958 15.855H61.7617C61.7617 15.855 61.6507 16.7063 61.5946 16.8959C61.4753 17.3936 61.2843 17.8203 61.0456 18.1995C60.807 18.5788 60.4967 18.8632 60.0909 19.0765Z" fill="black"/>
<path d="M66.4667 31.4326C66.4667 30.4545 66.6212 29.5278 66.9301 28.6012C67.2389 27.6745 67.7537 26.9023 68.423 26.1816C69.0922 25.4609 69.9159 24.9461 70.894 24.5343C71.8721 24.1224 73.0562 23.9165 74.3947 23.9165C75.7331 23.9165 76.9172 24.1224 77.8953 24.5343C78.8734 24.9461 79.6971 25.5124 80.3663 26.2331C81.0356 26.9538 81.4989 27.726 81.8078 28.6527C82.1167 29.5278 82.2711 30.5059 82.2711 31.4326C82.2711 32.4107 82.1167 33.3374 81.8078 34.264C81.4989 35.1906 80.9841 35.9628 80.3149 36.6836C79.6456 37.4043 78.8219 37.9191 77.8438 38.3309C76.8657 38.7428 75.6817 38.9487 74.3947 38.9487C73.1077 38.9487 71.8721 38.7428 70.894 38.3309C69.9159 37.9191 69.0922 37.3528 68.423 36.6321C67.7537 35.9114 67.2904 35.1392 66.9301 34.2125C66.6212 33.3374 66.4667 32.4107 66.4667 31.4326ZM73.0562 24.5343C72.181 24.5343 71.4603 24.7402 70.894 25.152C70.3277 25.5639 69.8644 26.0787 69.5555 26.6964C69.2467 27.3142 69.0922 28.0864 68.9893 28.9101C68.9378 29.7337 68.9893 30.6089 69.1437 31.4841C69.2981 32.3592 69.5555 33.1829 69.9674 34.0581C70.3277 34.8818 70.7911 35.6025 71.3573 36.2717C71.9236 36.8895 72.5414 37.4558 73.2621 37.8161C73.9828 38.228 74.755 38.4339 75.6302 38.4339C76.5053 38.4339 77.1746 38.228 77.7409 37.8161C78.3071 37.4043 78.719 36.8895 79.0279 36.2717C79.3367 35.654 79.4912 34.8818 79.5941 34.0581C79.6456 33.2344 79.5941 32.3592 79.4397 31.4841C79.2853 30.6089 78.9764 29.7852 78.616 28.9101C78.2557 28.0864 77.7923 27.3657 77.2261 26.6964C76.6598 26.0787 76.042 25.5124 75.3213 25.152C74.6006 24.7917 73.9313 24.5343 73.0562 24.5343Z" fill="black"/>
<path d="M84.4793 24.8946L87.0533 23.5046V38.5368H84.4793V24.8946ZM87.3107 25.6668C87.5166 25.3579 87.8255 25.1005 88.1344 24.8946C88.4433 24.6887 88.8036 24.4828 89.2155 24.3798C89.6273 24.2768 89.9877 24.1224 90.3995 24.0709C90.8114 24.0194 91.1717 23.968 91.5835 23.968C92.7676 23.968 93.7457 24.1224 94.5179 24.3798C95.2901 24.6372 95.9594 25.049 96.4227 25.5124C96.9375 25.9757 97.2978 26.542 97.5552 27.1597C97.8126 27.7775 98.0186 28.4467 98.1215 29.116C98.2245 29.8367 98.276 30.5059 98.3274 31.2781C98.3274 31.9988 98.3274 32.7196 98.3274 33.3888V38.5883H95.7534V33.1314C95.7534 32.6166 95.7534 32.1018 95.7534 31.484C95.7534 30.8663 95.702 30.2485 95.6505 29.5793C95.599 28.91 95.4446 28.2923 95.2901 27.6745C95.1357 27.0568 94.8783 26.542 94.5694 26.0272C94.2605 25.5638 93.7972 25.152 93.2824 24.8946C92.7676 24.5857 92.0984 24.4313 91.2747 24.4313C90.6054 24.4313 90.0906 24.4828 89.6273 24.5857C89.164 24.6887 88.8036 24.7916 88.4947 24.8946C88.1859 24.9976 87.9285 25.152 87.774 25.3064C87.5681 25.4609 87.4137 25.5638 87.3107 25.6668Z" fill="black"/>
<path d="M28.4955 0.0812988C30.5547 0.0812988 32.3565 0.390179 33.9009 0.95646C35.4453 1.57422 36.7323 2.34642 37.7619 3.32454C38.7915 4.30266 39.5637 5.38374 40.0786 6.67075C40.5934 7.90627 40.8508 9.19327 40.8508 10.5317C40.8508 11.8187 40.5934 13.1058 40.0786 14.3413C39.5637 15.5768 38.7915 16.7094 37.7619 17.6875C36.7323 18.6656 35.4453 19.4378 33.9009 20.0556C32.3565 20.6733 30.5547 20.9822 28.4955 20.9822C26.4363 20.9822 24.6345 20.6733 23.0901 20.0556C21.5457 19.4378 20.2587 18.6656 19.2291 17.6875C18.1995 16.7094 17.4273 15.5768 16.9125 14.3413C16.3977 13.1058 16.1403 11.8187 16.1403 10.5317C16.1403 9.19327 16.3977 7.95775 16.9125 6.67075C17.4273 5.43522 18.1995 4.30266 19.2291 3.32454C20.2587 2.34642 21.5457 1.57422 23.0901 0.95646C24.6345 0.390179 26.4363 0.0812988 28.4955 0.0812988ZM30.0399 20.313C31.5843 20.313 32.9228 20.0556 34.0039 19.4893C35.085 18.923 35.9601 18.2023 36.6294 17.2756C37.2986 16.349 37.7105 15.3194 37.9164 14.1354C38.1223 12.9513 38.1223 11.7673 37.9679 10.5317C37.7619 9.29623 37.4016 8.11219 36.7838 6.92815C36.1661 5.7441 35.4453 4.7145 34.5187 3.78786C33.5921 2.86122 32.511 2.1405 31.224 1.57422C29.937 1.00794 28.547 0.750539 27.0026 0.750539C25.4067 0.750539 24.0682 1.00794 22.9872 1.57422C21.9061 2.1405 21.0309 2.86122 20.4132 3.78786C19.7439 4.7145 19.3321 5.7441 19.1262 6.92815C18.9202 8.11219 18.9202 9.29623 19.0747 10.5317C19.2806 11.7673 19.641 12.9513 20.2072 14.1354C20.7735 15.3194 21.5457 16.349 22.4724 17.2756C23.399 18.2023 24.5316 18.923 25.7671 19.4893C27.0541 20.0041 28.4955 20.313 30.0399 20.313Z" fill="black"/>
<path d="M43.637 4.92023L46.211 3.53027V12.076C46.2625 12.9511 46.4169 13.8263 46.6743 14.5985C46.9317 15.3707 47.2921 16.0914 47.8069 16.6577C48.2702 17.224 48.8365 17.7388 49.5572 18.0476C50.2265 18.408 50.9987 18.5624 51.8738 18.5624C52.9549 18.5624 53.7786 18.2021 54.4478 17.5328C55.1171 16.8636 55.5289 15.9884 55.7863 14.9588C56.0437 13.9292 56.0952 12.7967 55.9922 11.6126C55.8893 10.4286 55.5804 9.29604 55.1171 8.26644C54.6538 7.23684 54.036 6.36168 53.2638 5.69244C52.4916 5.02319 51.565 4.66283 50.5354 4.66283C50.175 4.66283 49.7631 4.71431 49.4028 4.86875C49.0424 5.02319 48.6821 5.17763 48.3217 5.38356C47.9613 5.58948 47.6525 5.84688 47.3951 6.10428C47.0862 6.36168 46.8803 6.67056 46.7258 6.92796C47.1377 6.0528 47.8069 5.33208 48.6821 4.76579C49.6087 4.19951 50.5868 3.94211 51.6164 3.94211C52.9034 3.94211 53.9845 4.14803 54.9112 4.55987C55.8378 4.97171 56.5585 5.538 57.1763 6.25872C57.7426 6.97944 58.2059 7.75164 58.4633 8.67828C58.7207 9.60492 58.8751 10.4801 58.8751 11.4582C58.8751 12.4363 58.7207 13.3115 58.4633 14.2381C58.2059 15.1133 57.7426 15.937 57.1763 16.6577C56.61 17.3784 55.8378 17.9447 54.9112 18.3565C53.9845 18.7684 52.9034 19.0258 51.6679 19.0258C50.3294 19.0258 49.1969 18.8198 48.3217 18.4595C47.4465 18.0991 46.7773 17.5843 46.2625 16.9666V25.7697H43.6885V4.92023H43.637Z" fill="black"/>
<path d="M64.888 8.8842C64.888 9.86232 65.0424 10.8404 65.3513 11.87C65.6602 12.8996 66.1235 13.7748 66.6898 14.65C67.256 15.4736 67.9768 16.1429 68.8004 16.6577C69.6241 17.1725 70.5508 17.4299 71.5289 17.4299C72.4555 17.4299 73.2792 17.224 73.9999 16.8636C74.7206 16.4518 75.3384 15.9884 75.8532 15.4736C76.368 14.9588 76.7799 14.3926 77.0373 13.8778C77.3461 13.363 77.5006 12.9511 77.5006 12.6937C77.4491 13.363 77.1917 14.0837 76.7799 14.7529C76.368 15.4222 75.8532 16.0399 75.184 16.6062C74.5147 17.1725 73.794 17.5843 72.9188 17.9447C72.0437 18.2536 71.117 18.4595 70.1389 18.4595C68.8004 18.4595 67.6164 18.2536 66.6383 17.8417C65.6602 17.4299 64.8365 16.8636 64.1672 16.1429C63.498 15.4222 63.0347 14.65 62.6743 13.7233C62.3654 12.8482 62.211 11.87 62.211 10.9434C62.211 9.6564 62.4169 8.57532 62.8288 7.64868C63.2406 6.72204 63.8069 5.94984 64.4761 5.33208C65.1454 4.71431 65.9176 4.25099 66.7927 3.99359C67.6679 3.68471 68.543 3.53027 69.4182 3.53027C70.0874 3.53027 70.7567 3.63323 71.3744 3.83915C72.0437 4.04507 72.61 4.35395 73.1762 4.76579C73.7425 5.17763 74.2059 5.64096 74.6177 6.15576C75.0295 6.72204 75.3384 7.28832 75.5958 7.95756C75.6988 8.26644 75.6473 8.52384 75.4928 8.72976C75.3384 8.93568 75.081 9.03864 74.7206 9.03864H64.888V8.8842ZM68.9034 3.89063C68.2342 3.89063 67.6679 3.99359 67.1531 4.25099C66.6383 4.50839 66.2264 4.81727 65.9176 5.22912C65.6087 5.64096 65.3513 6.15576 65.1454 6.67056C64.9909 7.23684 64.888 7.80312 64.8365 8.42088H73.2792C73.1762 8.06052 73.0218 7.64868 72.8159 7.13388C72.61 6.61908 72.3011 6.10428 71.9407 5.64096C71.5804 5.17763 71.1685 4.76579 70.6537 4.40543C70.1389 4.04507 69.5212 3.89063 68.9034 3.89063Z" fill="black"/>
<path d="M78.8984 4.76594L81.4724 3.37598V18.4082H78.8984V4.76594ZM81.7813 5.53814C81.9872 5.22926 82.2961 4.97186 82.605 4.76594C82.9139 4.56002 83.2742 4.3541 83.6861 4.25114C84.0979 4.0967 84.4583 3.99374 84.8701 3.94226C85.282 3.89078 85.6423 3.8393 86.0542 3.8393C87.2382 3.8393 88.2163 3.99374 88.9885 4.25114C89.7607 4.50854 90.43 4.92038 90.8933 5.3837C91.4081 5.84702 91.7684 6.4133 92.0259 7.03106C92.2832 7.64882 92.4892 8.31806 92.5921 8.9873C92.6951 9.70802 92.7466 10.3773 92.7981 11.1495C92.7981 11.8702 92.7981 12.5909 92.7981 13.2601V18.4596H90.224V13.0027C90.224 12.4879 90.224 11.9731 90.224 11.3039C90.224 10.6861 90.1726 10.0684 90.1211 9.39914C90.0696 8.7299 89.9152 8.11214 89.7607 7.49438C89.6063 6.87662 89.3489 6.36182 89.04 5.84702C88.7311 5.3837 88.2678 4.97186 87.753 4.66298C87.2382 4.3541 86.569 4.19966 85.7453 4.19966C85.076 4.19966 84.5612 4.25114 84.0979 4.3541C83.6346 4.45706 83.2742 4.56002 82.9654 4.66298C82.6565 4.76594 82.3991 4.92038 82.2446 5.07482C82.0387 5.28074 81.8843 5.43518 81.7813 5.53814Z" fill="black"/>
</svg>
